<svg width="32" height="32" viewBox="0 0 32 32" fill="none" xmlns="http://www.w3.org/2000/svg">
<g id="&#240;&#159;&#166;&#134; icon &#34;magnifying glass&#34;">
<path id="Vector" d="M13.8949 0.957751C6.64104 0.957751 0.740234 6.85855 0.740234 14.1124C0.740234 21.3663 6.64104 27.2671 13.8949 27.2671C16.1124 27.2671 18.2923 26.7409 20.134 25.7261C20.2815 25.9036 20.445 26.0672 20.6226 26.2147L24.381 29.9732C24.7281 30.3637 25.1513 30.6791 25.6247 30.9002C26.098 31.1212 26.6116 31.2431 27.1338 31.2585C27.656 31.2739 28.1758 31.1824 28.6614 30.9896C29.1469 30.7968 29.588 30.5067 29.9574 30.1373C30.3268 29.7679 30.6168 29.3269 30.8096 28.8413C31.0024 28.3558 31.0939 27.8359 31.0786 27.3137C31.0632 26.7915 30.9413 26.278 30.7202 25.8046C30.4992 25.3312 30.1837 24.908 29.7932 24.561L26.0348 20.8025C25.8517 20.6193 25.6502 20.4556 25.4334 20.3139C26.4482 18.4722 27.0871 16.3299 27.0871 14.0748C27.0871 6.82097 21.1863 0.920166 13.9325 0.920166L13.8949 0.957751ZM13.8949 4.71622C19.1192 4.71622 23.2911 8.88813 23.2911 14.1124C23.2911 16.593 22.389 18.8857 20.8105 20.577C20.7729 20.6146 20.7353 20.6522 20.6977 20.6897C20.5202 20.8373 20.3566 21.0008 20.2091 21.1783C18.5554 22.6817 16.3003 23.5462 13.8573 23.5462C8.63303 23.5462 4.46112 19.3743 4.46112 14.15C4.46112 8.92572 8.63303 4.75381 13.8573 4.75381L13.8949 4.71622Z" fill="white"/>
</g>
</svg>
