<svg width="26" height="23" viewBox="0 0 26 23" fill="none" xmlns="http://www.w3.org/2000/svg">
<g id="Menu">
<path id="Vector" d="M1.64993 0C0.738698 0 0 0.738698 0 1.64993C0 2.56116 0.738698 3.29986 1.64993 3.29986H24.3501C25.2613 3.29986 26 2.56116 26 1.64993C26 0.738698 25.2613 0 24.3501 0H1.64993ZM1.64993 9.80057C0.738698 9.80057 0 10.5393 0 11.4505C0 12.3617 0.738698 13.1004 1.64993 13.1004H24.3501C25.2613 13.1004 26 12.3617 26 11.4505C26 10.5393 25.2613 9.80057 24.3501 9.80057H1.64993ZM1.64993 19.7001C0.738698 19.7001 0 20.4388 0 21.3501C0 22.2613 0.738698 23 1.64993 23H24.3501C25.2613 23 26 22.2613 26 21.3501C26 20.4388 25.2613 19.7001 24.3501 19.7001H1.64993Z" fill="black"/>
</g>
</svg>
